<?xml version="1.0" encoding="UTF-8"?>
<!DOCTYPE svg PUBLIC "-//W3C//DTD SVG 1.1//EN" "http://www.w3.org/Graphics/SVG/1.1/DTD/svg11.dtd">
<svg xmlns="http://www.w3.org/2000/svg" version="1.1" width="400px" height="400px" style="shape-rendering:geometricPrecision; text-rendering:geometricPrecision; image-rendering:optimizeQuality; fill-rule:evenodd; clip-rule:evenodd" xmlns:xlink="http://www.w3.org/1999/xlink">
<g><path style="opacity:1" fill="#9bda2e" d="M 292.5,3.5 C 338.38,14.2124 367.88,42.2124 381,87.5C 384.243,100.319 385.243,113.319 384,126.5C 383.727,128.329 382.893,129.829 381.5,131C 375.78,131.788 370.114,131.621 364.5,130.5C 367.107,88.1071 350.773,55.2738 315.5,32C 306.203,26.9016 296.369,23.4016 286,21.5C 287.276,15.2606 289.443,9.2606 292.5,3.5 Z"/></g>
<g><path style="opacity:1" fill="#9bda2e" d="M 278.5,39.5 C 312.428,47.258 334.261,67.9246 344,101.5C 345.029,107.476 345.862,113.476 346.5,119.5C 346.518,123.489 345.851,127.322 344.5,131C 338.448,131.79 332.448,131.624 326.5,130.5C 328.301,101.602 316.968,79.4349 292.5,64C 285.736,61.5817 278.903,59.415 272,57.5C 273.065,51.1413 275.232,45.1413 278.5,39.5 Z"/></g>
<g><path style="opacity:0.999" fill="#9bd82e" d="M 264.5,74.5 C 285.621,79.4517 299.121,92.4517 305,113.5C 306.359,118.775 306.692,124.109 306,129.5C 305.5,130 305,130.5 304.5,131C 299.5,131.667 294.5,131.667 289.5,131C 287.625,125.3 286.125,119.466 285,113.5C 279.758,101.922 271.091,94.2554 259,90.5C 259.94,84.9337 261.773,79.6003 264.5,74.5 Z"/></g>
<g><path style="opacity:1" fill="#0cadee" d="M 267.5,114.5 C 269.534,118.99 271.534,123.324 273.5,127.5C 273.667,210.501 273.5,293.501 273,376.5C 272.08,379.101 271.413,381.768 271,384.5C 268.978,388.003 266.811,391.337 264.5,394.5C 262.692,394.491 261.025,394.991 259.5,396C 212.835,396.5 166.168,396.667 119.5,396.5C 114.062,393.31 109.729,388.977 106.5,383.5C 105.646,374.195 105.313,364.861 105.5,355.5C 96.8333,355.5 88.1667,355.5 79.5,355.5C 64.5731,353.742 51.2397,348.075 39.5,338.5C 38.6143,337.675 38.281,336.675 38.5,335.5C 36.3193,335.716 34.6526,334.883 33.5,333C 33.8333,332.667 34.1667,332.333 34.5,332C 26.7724,325.719 22.2724,317.553 21,307.5C 20.6174,306.944 20.1174,306.611 19.5,306.5C 16.903,290.172 16.903,273.838 19.5,257.5C 21.7635,249.564 24.9302,241.897 29,234.5C 33.3334,228.67 37.8334,223.004 42.5,217.5C 44.2228,215.782 46.2228,214.449 48.5,213.5C 52.1055,213.201 55.4388,212.035 58.5,210C 69.5201,203.634 80.5201,197.301 91.5,191C 92.3805,190.292 93.0472,189.458 93.5,188.5C 94.8734,188.657 96.2068,188.49 97.5,188C 99.7243,186.219 102.058,184.719 104.5,183.5C 104.5,165.167 104.5,146.833 104.5,128.5C 104.5,128.167 104.5,127.833 104.5,127.5C 106.687,122.145 109.687,117.145 113.5,112.5C 114.473,112.013 115.473,111.513 116.5,111C 165.167,110.333 213.833,110.333 262.5,111C 264.584,111.697 266.251,112.864 267.5,114.5 Z"/></g>
<g><path style="opacity:0.808" fill="#72888f" d="M 113.5,112.5 C 109.687,117.145 106.687,122.145 104.5,127.5C 105.188,121.127 108.188,116.127 113.5,112.5 Z"/></g>
<g><path style="opacity:0.98" fill="#a3b0b7" d="M 267.5,114.5 C 271.369,117.907 273.369,122.241 273.5,127.5C 271.534,123.324 269.534,118.99 267.5,114.5 Z"/></g>
<g><path style="opacity:1" fill="#d5fefe" d="M 166.5,123.5 C 181.5,123.5 196.5,123.5 211.5,123.5C 211.5,125.167 211.5,126.833 211.5,128.5C 196.5,128.5 181.5,128.5 166.5,128.5C 166.5,126.833 166.5,125.167 166.5,123.5 Z"/></g>
<g><path style="opacity:1" fill="#fcfbfc" d="M 167.5,124.5 C 181.833,124.5 196.167,124.5 210.5,124.5C 210.5,125.5 210.5,126.5 210.5,127.5C 196.167,127.5 181.833,127.5 167.5,127.5C 167.5,126.5 167.5,125.5 167.5,124.5 Z"/></g>
<g><path style="opacity:1" fill="#c8f0f8" d="M 258.5,197.5 C 258.5,178.5 258.5,159.5 258.5,140.5C 212.167,140.5 165.833,140.5 119.5,140.5C 119.5,151.833 119.5,163.167 119.5,174.5C 118.505,163.012 118.172,151.345 118.5,139.5C 165.5,139.5 212.5,139.5 259.5,139.5C 259.83,159.007 259.497,178.341 258.5,197.5 Z"/></g>
<g><path style="opacity:1" fill="#fcfdfd" d="M 258.5,197.5 C 258.5,251.833 258.5,306.167 258.5,360.5C 257.167,360.5 255.833,360.5 254.5,360.5C 209.5,360.5 164.5,360.5 119.5,360.5C 119.5,314.167 119.5,267.833 119.5,221.5C 134.547,211.302 149.213,200.468 163.5,189C 170.497,183.829 174.497,176.996 175.5,168.5C 175.454,162.277 172.454,158.11 166.5,156C 162.5,155.333 158.5,155.333 154.5,156C 142.843,162.162 131.176,168.329 119.5,174.5C 119.5,163.167 119.5,151.833 119.5,140.5C 165.833,140.5 212.167,140.5 258.5,140.5C 258.5,159.5 258.5,178.5 258.5,197.5 Z"/></g>
<g><path style="opacity:0.322" fill="#6a5d5f" d="M 104.5,128.5 C 104.5,146.833 104.5,165.167 104.5,183.5C 103.833,183.5 103.167,183.5 102.5,183.5C 103.154,165.069 103.821,146.735 104.5,128.5 Z"/></g>
<g><path style="opacity:0.902" fill="#7eb0bf" d="M 102.5,183.5 C 103.167,183.5 103.833,183.5 104.5,183.5C 102.058,184.719 99.7243,186.219 97.5,188C 96.2068,188.49 94.8734,188.657 93.5,188.5C 96.2201,186.473 99.2201,184.807 102.5,183.5 Z"/></g>
<g><path style="opacity:0.992" fill="#75a8b7" d="M 93.5,188.5 C 93.0472,189.458 92.3805,190.292 91.5,191C 80.5201,197.301 69.5201,203.634 58.5,210C 55.4388,212.035 52.1055,213.201 48.5,213.5C 63.5134,205.314 78.5134,196.981 93.5,188.5 Z"/></g>
<g><path style="opacity:1" fill="#0b7db1" d="M 236.5,320.5 C 234.952,320.179 234.285,319.179 234.5,317.5C 234.789,311.755 234.289,306.088 233,300.5C 230.158,291.815 226.491,283.481 222,275.5C 211.988,258.805 200.988,242.805 189,227.5C 171.05,249.052 156.384,272.719 145,298.5C 143.608,302.901 142.774,307.401 142.5,312C 143.618,318.637 145.284,325.137 147.5,331.5C 147.5,332.167 147.167,332.5 146.5,332.5C 137.769,318.28 136.269,303.28 142,287.5C 154.471,260.391 170.137,235.391 189,212.5C 206.37,234.563 221.37,258.23 234,283.5C 240.207,295.618 241.04,307.951 236.5,320.5 Z"/></g>
<g><path style="opacity:0.643" fill="#d7a8a8" d="M 273.5,127.5 C 274.184,153.354 274.851,179.354 275.5,205.5C 274.687,263.261 274.187,321.261 274,379.5C 273.325,386.206 270.158,391.206 264.5,394.5C 266.811,391.337 268.978,388.003 271,384.5C 271.413,381.768 272.08,379.101 273,376.5C 273.5,293.501 273.667,210.501 273.5,127.5 Z"/></g>
<g><path style="opacity:0.984" fill="#88a4ad" d="M 42.5,217.5 C 37.8334,223.004 33.3334,228.67 29,234.5C 24.9302,241.897 21.7635,249.564 19.5,257.5C 19.67,256.178 19.3366,255.011 18.5,254C 22.3853,244.006 27.2186,234.506 33,225.5C 35.7663,222.223 38.933,219.557 42.5,217.5 Z"/></g>
<g><path style="opacity:0.855" fill="#88989c" d="M 19.5,257.5 C 16.903,273.838 16.903,290.172 19.5,306.5C 14.2431,290.184 14.2431,273.851 19.5,257.5 Z"/></g>
<g><path style="opacity:1" fill="#6ee2df" d="M 170.5,270.5 C 175.984,270.951 179.484,273.617 181,278.5C 177.95,274.93 174.45,272.263 170.5,270.5 Z"/></g>
<g><path style="opacity:1" fill="#81e4e4" d="M 204.5,270.5 C 205.675,270.281 206.675,270.614 207.5,271.5C 204.365,272.75 201.365,273.917 198.5,275C 200.389,273.236 202.389,271.736 204.5,270.5 Z"/></g>
<g><path style="opacity:1" fill="#68d6ea" d="M 161.5,280.5 C 165.654,280.631 169.654,281.464 173.5,283C 168.517,282.241 163.517,282.408 158.5,283.5C 157.833,283.333 157.167,283.167 156.5,283C 158.315,282.243 159.981,281.41 161.5,280.5 Z"/></g>
<g><path style="opacity:1" fill="#72e0f0" d="M 209.5,280.5 C 213.346,280.545 217.013,281.378 220.5,283C 215.877,282.854 211.21,282.52 206.5,282C 207.737,281.768 208.737,281.268 209.5,280.5 Z"/></g>
<g><path style="opacity:1" fill="#e7ecad" d="M 153.5,296.5 C 160.545,291.032 168.212,290.199 176.5,294C 172.143,294.631 167.809,294.465 163.5,293.5C 160.024,294.104 156.691,295.104 153.5,296.5 Z"/></g>
<g><path style="opacity:1" fill="#e1e692" d="M 220.5,294.5 C 214.153,293.339 207.819,293.172 201.5,294C 205.429,292.484 209.262,291.651 213,291.5C 215.756,292.07 218.256,293.07 220.5,294.5 Z"/></g>
<g><path style="opacity:1" fill="#c5dc63" d="M 220.5,294.5 C 223.084,294.569 225.084,295.735 226.5,298C 224.188,297.553 222.188,296.387 220.5,294.5 Z"/></g>
<g><path style="opacity:1" fill="#c5dd58" d="M 153.5,296.5 C 152.438,298.757 150.772,299.923 148.5,300C 149.789,298.198 151.456,297.031 153.5,296.5 Z"/></g>
<g><path style="opacity:1" fill="#75dcf7" d="M 185.5,305.5 C 186.483,309.298 186.817,313.298 186.5,317.5C 184.167,317.5 181.833,317.5 179.5,317.5C 181.265,316.539 183.265,316.205 185.5,316.5C 185.5,312.833 185.5,309.167 185.5,305.5 Z"/></g>
<g><path style="opacity:1" fill="#0781b5" d="M 179.5,317.5 C 181.833,317.5 184.167,317.5 186.5,317.5C 186.817,313.298 186.483,309.298 185.5,305.5C 184.432,304.566 183.099,304.232 181.5,304.5C 183.017,300.441 184.35,296.274 185.5,292C 187.478,289.003 189.645,288.836 192,291.5C 193.44,295.578 194.94,299.578 196.5,303.5C 194.955,304.452 193.288,304.785 191.5,304.5C 191.5,308.833 191.5,313.167 191.5,317.5C 194.167,317.5 196.833,317.5 199.5,317.5C 199.5,318.833 199.5,320.167 199.5,321.5C 192.5,321.5 185.5,321.5 178.5,321.5C 178.232,319.901 178.566,318.568 179.5,317.5 Z"/></g>
<g><path style="opacity:1" fill="#73b82e" d="M 188.5,348.5 C 180.928,343.61 173.595,338.277 166.5,332.5C 166.167,332.667 165.833,332.833 165.5,333C 171.552,338.053 177.885,342.719 184.5,347C 185.738,347.69 185.738,348.19 184.5,348.5C 162.354,347.188 150.854,335.521 150,313.5C 156.079,318.198 162.912,321.364 170.5,323C 181.682,328.303 187.682,336.803 188.5,348.5 Z"/></g>
<g><path style="opacity:1" fill="#9fdd37" d="M 196.5,347.5 C 195.176,348.85 194.176,348.683 193.5,347C 195.981,335.853 202.648,328.519 213.5,325C 219.25,324.209 224.083,321.709 228,317.5C 227.634,335.883 218.3,346.216 200,348.5C 198.615,348.486 197.449,348.152 196.5,347.5 Z"/></g>
<g><path style="opacity:1" fill="#3cabdd" d="M 234.5,317.5 C 234.285,319.179 234.952,320.179 236.5,320.5C 233.568,330.187 228.235,338.353 220.5,345C 219.833,345.667 219.167,345.667 218.5,345C 227.074,337.621 232.407,328.455 234.5,317.5 Z"/></g>
<g><path style="opacity:1" fill="#50c4e8" d="M 147.5,331.5 C 150.892,336.401 154.892,340.901 159.5,345C 154.143,342.148 149.81,337.982 146.5,332.5C 147.167,332.5 147.5,332.167 147.5,331.5 Z"/></g>
<g><path style="opacity:1" fill="#daeec5" d="M 188.5,348.5 C 187.039,349.686 185.705,349.686 184.5,348.5C 185.738,348.19 185.738,347.69 184.5,347C 177.885,342.719 171.552,338.053 165.5,333C 165.833,332.833 166.167,332.667 166.5,332.5C 173.595,338.277 180.928,343.61 188.5,348.5 Z"/></g>
<g><path style="opacity:1" fill="#bde780" d="M 196.5,347.5 C 201.431,343.687 206.431,339.854 211.5,336C 212.167,335.333 212.833,335.333 213.5,336C 210.93,338.067 208.93,340.567 207.5,343.5C 206.833,343.167 206.167,342.833 205.5,342.5C 202.721,344.624 199.721,346.291 196.5,347.5 Z"/></g>
<g><path style="opacity:1" fill="#9eaab5" d="M 19.5,306.5 C 20.1174,306.611 20.6174,306.944 21,307.5C 22.2724,317.553 26.7724,325.719 34.5,332C 34.1667,332.333 33.8333,332.667 33.5,333C 34.6526,334.883 36.3193,335.716 38.5,335.5C 38.281,336.675 38.6143,337.675 39.5,338.5C 51.2397,348.075 64.5731,353.742 79.5,355.5C 79.5,355.833 79.5,356.167 79.5,356.5C 50.2443,353.721 30.411,338.721 20,311.5C 19.5065,309.866 19.3398,308.199 19.5,306.5 Z"/></g>
<g><path style="opacity:0.969" fill="#9aa4ad" d="M 79.5,356.5 C 79.5,356.167 79.5,355.833 79.5,355.5C 88.1667,355.5 96.8333,355.5 105.5,355.5C 105.313,364.861 105.646,374.195 106.5,383.5C 106.5,384.167 106.167,384.5 105.5,384.5C 103.696,375.646 103.029,366.646 103.5,357.5C 95.4144,357.801 87.4144,357.467 79.5,356.5 Z"/></g>
<g><path style="opacity:1" fill="#a1e5f1" d="M 119.5,221.5 C 119.5,267.833 119.5,314.167 119.5,360.5C 164.5,360.5 209.5,360.5 254.5,360.5C 209.336,361.499 164.003,361.832 118.5,361.5C 118.168,314.664 118.501,267.997 119.5,221.5 Z"/></g>
<g><path style="opacity:1" fill="#fafdfc" d="M 186.5,367.5 C 197.204,368.024 201.037,373.357 198,383.5C 192,390.167 186,390.167 180,383.5C 176.952,375.94 179.119,370.607 186.5,367.5 Z"/></g>
<g><path style="opacity:0.914" fill="#909aa1" d="M 106.5,383.5 C 109.729,388.977 114.062,393.31 119.5,396.5C 119.5,396.833 119.5,397.167 119.5,397.5C 112.897,395.23 108.231,390.897 105.5,384.5C 106.167,384.5 106.5,384.167 106.5,383.5 Z"/></g>
<g><path style="opacity:0.965" fill="#a69ea0" d="M 264.5,394.5 C 263.025,396.41 261.025,397.576 258.5,398C 211.998,398.832 165.665,398.665 119.5,397.5C 119.5,397.167 119.5,396.833 119.5,396.5C 166.168,396.667 212.835,396.5 259.5,396C 261.025,394.991 262.692,394.491 264.5,394.5 Z"/></g>
</svg>
