<?xml version="1.0" standalone="no"?>
<!DOCTYPE svg PUBLIC "-//W3C//DTD SVG 20010904//EN"
 "http://www.w3.org/TR/2001/REC-SVG-20010904/DTD/svg10.dtd">
<svg version="1.0" xmlns="http://www.w3.org/2000/svg"
 width="128.000000pt" height="117.000000pt" viewBox="0 0 128.000000 117.000000"
 preserveAspectRatio="xMidYMid meet">
<metadata>
Created by potrace 1.10, written by Peter Selinger 2001-2011
</metadata>
<g transform="translate(0.000000,117.000000) scale(0.100000,-0.100000)"
fill="#000000" stroke="none">
<path d="M600 1020 c-52 -11 -98 -38 -123 -72 -12 -16 -23 -34 -23 -39 -1 -5
-2 -10 -4 -11 -7 -10 -12 -50 -12 -92 1 -36 9 -62 31 -97 16 -27 27 -48 23
-47 -19 4 -69 -27 -119 -74 -95 -89 -147 -243 -108 -318 23 -45 45 -67 78 -79
38 -15 556 -15 593 -1 15 6 41 25 58 43 28 29 31 38 31 92 -1 63 -5 92 -18
113 -5 6 -6 12 -2 12 3 0 -6 21 -20 48 -31 57 -115 137 -162 154 -39 14 -40
20 -13 63 26 42 35 110 21 161 -14 52 -89 130 -134 139 -18 4 -39 8 -47 9 -8
2 -31 0 -50 -4z m110 -56 c66 -36 90 -75 90 -146 0 -105 -102 -184 -203 -157
-120 32 -166 177 -84 265 55 60 130 74 197 38z m-150 -360 c52 -20 115 -17
172 8 49 21 51 21 84 3 131 -71 220 -283 149 -359 -13 -14 -34 -26 -47 -26
-13 0 -147 -1 -298 -3 l-275 -2 -27 34 c-32 39 -35 73 -12 151 26 88 75 152
154 199 19 12 42 18 50 15 8 -4 31 -13 50 -20z"/>
</g>
</svg>
